<svg width="205" height="38" viewBox="0 0 205 38" fill="none" xmlns="http://www.w3.org/2000/svg">
<g filter="url(#filter0_d_1_936)">
<path d="M0 4C0 1.79086 1.79086 0 4 0H201C203.209 0 205 1.79086 205 4V32C205 34.2091 203.209 36 201 36H4C1.79086 36 0 34.2091 0 32V4Z" fill="#2A2A2A"/>
<path d="M0.5 4C0.5 2.067 2.067 0.5 4 0.5H201C202.933 0.5 204.5 2.067 204.5 4V32C204.5 33.933 202.933 35.5 201 35.5H4C2.067 35.5 0.5 33.933 0.5 32V4Z" stroke="#2A2A2A"/>
</g>
<path d="M52.0283 18.3994H47.7148V21.9268H52.7256V23H46.4023V13.0469H52.6572V14.127H47.7148V17.3262H52.0283V18.3994ZM56.6426 18.3037L58.2832 15.6035H59.7598L57.3398 19.2607L59.835 23H58.3721L56.6631 20.2314L54.9541 23H53.4844L55.9795 19.2607L53.5596 15.6035H55.0225L56.6426 18.3037ZM67.3545 19.3838C67.3545 20.5094 67.097 21.4163 66.582 22.1045C66.0671 22.7926 65.3698 23.1367 64.4902 23.1367C63.5924 23.1367 62.8861 22.8519 62.3711 22.2822V25.8438H61.1064V15.6035H62.2617L62.3232 16.4238C62.8382 15.7858 63.5537 15.4668 64.4697 15.4668C65.3584 15.4668 66.0602 15.8018 66.5752 16.4717C67.0947 17.1416 67.3545 18.0736 67.3545 19.2676V19.3838ZM66.0898 19.2402C66.0898 18.4062 65.9121 17.7477 65.5566 17.2646C65.2012 16.7816 64.7135 16.54 64.0938 16.54C63.3281 16.54 62.7539 16.8796 62.3711 17.5586V21.0928C62.7493 21.7673 63.3281 22.1045 64.1074 22.1045C64.7135 22.1045 65.1943 21.8652 65.5498 21.3867C65.9098 20.9036 66.0898 20.1882 66.0898 19.2402ZM68.6328 19.2334C68.6328 18.5088 68.7741 17.8571 69.0566 17.2783C69.3438 16.6995 69.7402 16.2529 70.2461 15.9385C70.7565 15.624 71.3376 15.4668 71.9893 15.4668C72.9964 15.4668 73.8099 15.8154 74.4297 16.5127C75.054 17.21 75.3662 18.1374 75.3662 19.2949V19.3838C75.3662 20.1038 75.2272 20.751 74.9492 21.3252C74.6758 21.8949 74.2816 22.3392 73.7666 22.6582C73.2562 22.9772 72.6683 23.1367 72.0029 23.1367C71.0003 23.1367 70.1868 22.7881 69.5625 22.0908C68.9427 21.3936 68.6328 20.4707 68.6328 19.3223V19.2334ZM69.9043 19.3838C69.9043 20.2041 70.0934 20.8626 70.4717 21.3594C70.8545 21.8561 71.3649 22.1045 72.0029 22.1045C72.6455 22.1045 73.1559 21.8538 73.5342 21.3525C73.9124 20.8467 74.1016 20.1403 74.1016 19.2334C74.1016 18.4222 73.9079 17.766 73.5205 17.2646C73.1377 16.7588 72.6273 16.5059 71.9893 16.5059C71.3649 16.5059 70.8613 16.7542 70.4785 17.251C70.0957 17.7477 69.9043 18.4587 69.9043 19.3838ZM80.5273 16.7383C80.3359 16.7064 80.1286 16.6904 79.9053 16.6904C79.0758 16.6904 78.513 17.0436 78.2168 17.75V23H76.9521V15.6035H78.1826L78.2031 16.458C78.6178 15.7972 79.2057 15.4668 79.9668 15.4668C80.2129 15.4668 80.3997 15.4987 80.5273 15.5625V16.7383ZM84.6289 23.1367C83.6263 23.1367 82.8105 22.8086 82.1816 22.1523C81.5527 21.4915 81.2383 20.6097 81.2383 19.5068V19.2744C81.2383 18.5407 81.3773 17.8867 81.6553 17.3125C81.9378 16.7337 82.3298 16.2826 82.8311 15.959C83.3369 15.6309 83.8838 15.4668 84.4717 15.4668C85.4333 15.4668 86.1807 15.7835 86.7139 16.417C87.2471 17.0505 87.5137 17.9574 87.5137 19.1377V19.6641H82.5029C82.5212 20.3932 82.7331 20.9834 83.1387 21.4346C83.5488 21.8812 84.0684 22.1045 84.6973 22.1045C85.1439 22.1045 85.5221 22.0133 85.832 21.8311C86.1419 21.6488 86.4131 21.4072 86.6455 21.1064L87.418 21.708C86.7982 22.6605 85.8685 23.1367 84.6289 23.1367ZM84.4717 16.5059C83.9613 16.5059 83.5329 16.6927 83.1865 17.0664C82.8402 17.4355 82.626 17.9551 82.5439 18.625H86.249V18.5293C86.2126 17.8867 86.0394 17.39 85.7295 17.0391C85.4196 16.6836 85.0003 16.5059 84.4717 16.5059ZM92.1484 19.2402C92.1484 18.1055 92.4173 17.194 92.9551 16.5059C93.4928 15.8132 94.1969 15.4668 95.0674 15.4668C95.9333 15.4668 96.6191 15.763 97.125 16.3555V12.5H98.3896V23H97.2275L97.166 22.207C96.6602 22.8268 95.9561 23.1367 95.0537 23.1367C94.1969 23.1367 93.4974 22.7858 92.9551 22.084C92.4173 21.3822 92.1484 20.4661 92.1484 19.3359V19.2402ZM93.4131 19.3838C93.4131 20.2223 93.5863 20.8786 93.9326 21.3525C94.279 21.8265 94.7575 22.0635 95.3682 22.0635C96.1702 22.0635 96.7559 21.7035 97.125 20.9834V17.5859C96.7467 16.8887 96.1657 16.54 95.3818 16.54C94.762 16.54 94.279 16.7793 93.9326 17.2578C93.5863 17.7363 93.4131 18.445 93.4131 19.3838ZM100.023 19.2334C100.023 18.5088 100.165 17.8571 100.447 17.2783C100.734 16.6995 101.131 16.2529 101.637 15.9385C102.147 15.624 102.728 15.4668 103.38 15.4668C104.387 15.4668 105.201 15.8154 105.82 16.5127C106.445 17.21 106.757 18.1374 106.757 19.2949V19.3838C106.757 20.1038 106.618 20.751 106.34 21.3252C106.066 21.8949 105.672 22.3392 105.157 22.6582C104.647 22.9772 104.059 23.1367 103.394 23.1367C102.391 23.1367 101.577 22.7881 100.953 22.0908C100.333 21.3936 100.023 20.4707 100.023 19.3223V19.2334ZM101.295 19.3838C101.295 20.2041 101.484 20.8626 101.862 21.3594C102.245 21.8561 102.756 22.1045 103.394 22.1045C104.036 22.1045 104.547 21.8538 104.925 21.3525C105.303 20.8467 105.492 20.1403 105.492 19.2334C105.492 18.4222 105.299 17.766 104.911 17.2646C104.528 16.7588 104.018 16.5059 103.38 16.5059C102.756 16.5059 102.252 16.7542 101.869 17.251C101.486 17.7477 101.295 18.4587 101.295 19.3838ZM111.31 22.1045C111.761 22.1045 112.155 21.9678 112.492 21.6943C112.829 21.4209 113.016 21.0791 113.053 20.6689H114.249C114.226 21.0928 114.08 21.4961 113.812 21.8789C113.543 22.2617 113.183 22.5671 112.731 22.7949C112.285 23.0228 111.811 23.1367 111.31 23.1367C110.302 23.1367 109.5 22.8018 108.903 22.1318C108.311 21.4574 108.015 20.5368 108.015 19.3701V19.1582C108.015 18.4382 108.147 17.7979 108.411 17.2373C108.675 16.6768 109.054 16.2415 109.546 15.9316C110.043 15.6217 110.628 15.4668 111.303 15.4668C112.132 15.4668 112.82 15.7152 113.367 16.2119C113.919 16.7087 114.213 17.3535 114.249 18.1465H113.053C113.016 17.668 112.834 17.276 112.506 16.9707C112.182 16.6608 111.781 16.5059 111.303 16.5059C110.66 16.5059 110.161 16.7383 109.806 17.2031C109.455 17.6634 109.279 18.3311 109.279 19.2061V19.4453C109.279 20.2975 109.455 20.9538 109.806 21.4141C110.157 21.8743 110.658 22.1045 111.31 22.1045ZM120.237 22.2686C119.745 22.8473 119.023 23.1367 118.07 23.1367C117.282 23.1367 116.68 22.9089 116.266 22.4531C115.855 21.9928 115.648 21.3138 115.644 20.416V15.6035H116.908V20.3818C116.908 21.5029 117.364 22.0635 118.275 22.0635C119.242 22.0635 119.884 21.7035 120.203 20.9834V15.6035H121.468V23H120.265L120.237 22.2686ZM124.585 15.6035L124.619 16.4238C125.161 15.7858 125.893 15.4668 126.813 15.4668C127.848 15.4668 128.552 15.8633 128.926 16.6562C129.172 16.3008 129.491 16.0137 129.883 15.7949C130.279 15.5762 130.746 15.4668 131.284 15.4668C132.907 15.4668 133.731 16.3258 133.759 18.0439V23H132.494V18.1191C132.494 17.5905 132.373 17.1963 132.132 16.9365C131.89 16.6722 131.485 16.54 130.915 16.54C130.446 16.54 130.056 16.6813 129.746 16.9639C129.436 17.2419 129.256 17.6178 129.206 18.0918V23H127.935V18.1533C127.935 17.0778 127.408 16.54 126.355 16.54C125.526 16.54 124.959 16.8932 124.653 17.5996V23H123.389V15.6035H124.585ZM138.742 23.1367C137.74 23.1367 136.924 22.8086 136.295 22.1523C135.666 21.4915 135.352 20.6097 135.352 19.5068V19.2744C135.352 18.5407 135.491 17.8867 135.769 17.3125C136.051 16.7337 136.443 16.2826 136.944 15.959C137.45 15.6309 137.997 15.4668 138.585 15.4668C139.547 15.4668 140.294 15.7835 140.827 16.417C141.36 17.0505 141.627 17.9574 141.627 19.1377V19.6641H136.616C136.634 20.3932 136.846 20.9834 137.252 21.4346C137.662 21.8812 138.182 22.1045 138.811 22.1045C139.257 22.1045 139.635 22.0133 139.945 21.8311C140.255 21.6488 140.526 21.4072 140.759 21.1064L141.531 21.708C140.911 22.6605 139.982 23.1367 138.742 23.1367ZM138.585 16.5059C138.075 16.5059 137.646 16.6927 137.3 17.0664C136.953 17.4355 136.739 17.9551 136.657 18.625H140.362V18.5293C140.326 17.8867 140.153 17.39 139.843 17.0391C139.533 16.6836 139.114 16.5059 138.585 16.5059ZM144.293 15.6035L144.334 16.5332C144.899 15.8223 145.637 15.4668 146.549 15.4668C148.112 15.4668 148.9 16.3486 148.914 18.1123V23H147.649V18.1055C147.645 17.5723 147.522 17.1781 147.28 16.9229C147.043 16.6676 146.672 16.54 146.166 16.54C145.756 16.54 145.396 16.6494 145.086 16.8682C144.776 17.0869 144.535 17.374 144.361 17.7295V23H143.097V15.6035H144.293ZM152.537 13.8125V15.6035H153.918V16.5811H152.537V21.168C152.537 21.4642 152.599 21.6875 152.722 21.8379C152.845 21.9837 153.054 22.0566 153.351 22.0566C153.496 22.0566 153.697 22.0293 153.952 21.9746V23C153.619 23.0911 153.296 23.1367 152.981 23.1367C152.416 23.1367 151.99 22.9658 151.703 22.624C151.416 22.2822 151.272 21.7969 151.272 21.168V16.5811H149.926V15.6035H151.272V13.8125H152.537ZM159.968 23C159.895 22.8542 159.836 22.5944 159.79 22.2207C159.202 22.8314 158.5 23.1367 157.685 23.1367C156.955 23.1367 156.356 22.9316 155.887 22.5215C155.422 22.1068 155.189 21.5827 155.189 20.9492C155.189 20.179 155.481 19.582 156.064 19.1582C156.652 18.7298 157.477 18.5156 158.539 18.5156H159.77V17.9346C159.77 17.4925 159.637 17.1416 159.373 16.8818C159.109 16.6175 158.719 16.4854 158.204 16.4854C157.753 16.4854 157.375 16.5993 157.069 16.8271C156.764 17.055 156.611 17.3307 156.611 17.6543H155.34C155.34 17.2852 155.47 16.9297 155.729 16.5879C155.994 16.2415 156.349 15.9681 156.796 15.7676C157.247 15.5671 157.742 15.4668 158.279 15.4668C159.132 15.4668 159.799 15.681 160.282 16.1094C160.765 16.5332 161.016 17.1188 161.034 17.8662V21.2705C161.034 21.9495 161.121 22.4896 161.294 22.8906V23H159.968ZM157.869 22.0361C158.266 22.0361 158.642 21.9336 158.997 21.7285C159.353 21.5234 159.61 21.2568 159.77 20.9287V19.4111H158.778C157.229 19.4111 156.454 19.8646 156.454 20.7715C156.454 21.168 156.586 21.4779 156.851 21.7012C157.115 21.9245 157.454 22.0361 157.869 22.0361ZM164.732 13.8125V15.6035H166.113V16.5811H164.732V21.168C164.732 21.4642 164.794 21.6875 164.917 21.8379C165.04 21.9837 165.25 22.0566 165.546 22.0566C165.692 22.0566 165.892 22.0293 166.147 21.9746V23C165.815 23.0911 165.491 23.1367 165.177 23.1367C164.612 23.1367 164.186 22.9658 163.898 22.624C163.611 22.2822 163.468 21.7969 163.468 21.168V16.5811H162.121V15.6035H163.468V13.8125H164.732ZM168.971 23H167.706V15.6035H168.971V23ZM167.604 13.6416C167.604 13.4365 167.665 13.2633 167.788 13.1221C167.916 12.9808 168.103 12.9102 168.349 12.9102C168.595 12.9102 168.782 12.9808 168.909 13.1221C169.037 13.2633 169.101 13.4365 169.101 13.6416C169.101 13.8467 169.037 14.0176 168.909 14.1543C168.782 14.291 168.595 14.3594 168.349 14.3594C168.103 14.3594 167.916 14.291 167.788 14.1543C167.665 14.0176 167.604 13.8467 167.604 13.6416ZM170.666 19.2334C170.666 18.5088 170.807 17.8571 171.09 17.2783C171.377 16.6995 171.773 16.2529 172.279 15.9385C172.79 15.624 173.371 15.4668 174.022 15.4668C175.03 15.4668 175.843 15.8154 176.463 16.5127C177.087 17.21 177.399 18.1374 177.399 19.2949V19.3838C177.399 20.1038 177.26 20.751 176.982 21.3252C176.709 21.8949 176.315 22.3392 175.8 22.6582C175.289 22.9772 174.701 23.1367 174.036 23.1367C173.034 23.1367 172.22 22.7881 171.596 22.0908C170.976 21.3936 170.666 20.4707 170.666 19.3223V19.2334ZM171.938 19.3838C171.938 20.2041 172.127 20.8626 172.505 21.3594C172.888 21.8561 173.398 22.1045 174.036 22.1045C174.679 22.1045 175.189 21.8538 175.567 21.3525C175.946 20.8467 176.135 20.1403 176.135 19.2334C176.135 18.4222 175.941 17.766 175.554 17.2646C175.171 16.7588 174.66 16.5059 174.022 16.5059C173.398 16.5059 172.895 16.7542 172.512 17.251C172.129 17.7477 171.938 18.4587 171.938 19.3838ZM180.182 15.6035L180.223 16.5332C180.788 15.8223 181.526 15.4668 182.438 15.4668C184.001 15.4668 184.789 16.3486 184.803 18.1123V23H183.538V18.1055C183.534 17.5723 183.41 17.1781 183.169 16.9229C182.932 16.6676 182.561 16.54 182.055 16.54C181.645 16.54 181.285 16.6494 180.975 16.8682C180.665 17.0869 180.423 17.374 180.25 17.7295V23H178.985V15.6035H180.182Z" fill="#E0E0E0"/>
<path d="M18.25 21.75L25.75 14.25" stroke="#A1A1A1" stroke-width="0.75" stroke-linecap="round" stroke-linejoin="round"/>
<path d="M18.25 14.25H25.75V21.75" stroke="#A1A1A1" stroke-width="0.75" stroke-linecap="round" stroke-linejoin="round"/>
<defs>
<filter id="filter0_d_1_936" x="0" y="0" width="205" height="38" filterUnits="userSpaceOnUse" color-interpolation-filters="sRGB">
<feFlood flood-opacity="0" result="BackgroundImageFix"/>
<feColorMatrix in="SourceAlpha" type="matrix" values="0 0 0 0 0 0 0 0 0 0 0 0 0 0 0 0 0 0 127 0" result="hardAlpha"/>
<feOffset dy="2"/>
<feColorMatrix type="matrix" values="0 0 0 0 0 0 0 0 0 0 0 0 0 0 0 0 0 0 0.043 0"/>
<feBlend mode="normal" in2="BackgroundImageFix" result="effect1_dropShadow_1_936"/>
<feBlend mode="normal" in="SourceGraphic" in2="effect1_dropShadow_1_936" result="shape"/>
</filter>
</defs>
</svg>
